<svg height='100px' width='100px'  fill="#FFFFFF" xmlns="http://www.w3.org/2000/svg" xmlns:xlink="http://www.w3.org/1999/xlink" version="1.1" x="0px" y="0px" viewBox="0 0 30 30" xml:space="preserve"><g transform="translate(-450 -140)"><g xmlns="http://www.w3.org/2000/svg" xmlns:xlink="http://www.w3.org/1999/xlink"><rect x="452" y="150" width="3" height="10"></rect><polygon points="467,166 456,159 456,151 467,144   "></polygon><path d="M472,154.682c0,2.107-1.093,3.958-2.738,5.029l0.944,1.763c2.272-1.412,3.794-3.925,3.794-6.792    c0-2.867-1.522-5.379-3.794-6.792l-0.944,1.763C470.907,150.724,472,152.576,472,154.682z"></path><path d="M478,154.682c0-4.39-2.377-8.225-5.904-10.318l-0.945,1.764c2.9,1.752,4.85,4.926,4.85,8.555    c0,3.629-1.949,6.803-4.85,8.556l0.945,1.763C475.623,162.908,478,159.072,478,154.682z"></path></g></g></svg>