<svg height='100px' width='100px'  fill="#FFFFFF" xmlns="http://www.w3.org/2000/svg" version="1.1" x="0px" y="0px" viewBox="0 0 100 100"><g transform="translate(0,-952.36218)"><path style="text-indent:0;text-transform:none;direction:ltr;block-progression:tb;baseline-shift:baseline;color:#000000;enable-background:accumulate;" d="m 30.706317,964.76997 a 3.4231915,3.4231915 0 0 0 -3.2813,3.6875 l 0,11.5626 -11.5937,0.031 a 3.4231915,3.4231915 0 0 0 -2.4688,5.8125 3.4231915,3.4231915 0 0 0 2.4688,1.0313 l 14.3124,-0.031 a 3.4231915,3.4231915 0 0 0 0.3438,0.062 3.4231915,3.4231915 0 0 0 3.1562,-1.4375 3.4231915,3.4231915 0 0 0 0.063,-0.062 3.4250661,3.4250661 0 0 0 0.125,-0.2188 3.4231915,3.4231915 0 0 0 0.062,-0.094 3.4231915,3.4231915 0 0 0 0.2188,-0.5313 3.4231915,3.4231915 0 0 0 0.031,-0.094 3.4250661,3.4250661 0 0 0 0.063,-0.2187 3.4231915,3.4231915 0 0 0 0,-0.125 3.4250661,3.4250661 0 0 0 0.031,-0.25 3.4231915,3.4231915 0 0 0 0.031,-0.094 3.4250661,3.4250661 0 0 0 0,-0.25 3.4231915,3.4231915 0 0 0 0,-0.031 3.4250661,3.4250661 0 0 0 0,-0.2813 l 0,-14.7813 a 3.4231915,3.4231915 0 0 0 -3.5624,-3.6875 z m 38.125,0 a 3.4231915,3.4231915 0 0 0 -3.1876,3.6875 l 0,14.7813 a 3.4250661,3.4250661 0 0 0 -0.031,0.2813 3.4231915,3.4231915 0 0 0 0,0.031 3.4250661,3.4250661 0 0 0 0.031,0.25 3.4231915,3.4231915 0 0 0 0,0.094 3.4250661,3.4250661 0 0 0 0.031,0.25 3.4231915,3.4231915 0 0 0 0.031,0.125 3.4250661,3.4250661 0 0 0 0.031,0.2187 3.4231915,3.4231915 0 0 0 0.062,0.094 3.4231915,3.4231915 0 0 0 0.2187,0.5313 3.4231915,3.4231915 0 0 0 0.063,0.094 3.4250661,3.4250661 0 0 0 0.094,0.2188 3.4231915,3.4231915 0 0 0 0.062,0.062 3.4231915,3.4231915 0 0 0 3.1875,1.4375 3.4231915,3.4231915 0 0 0 0.3437,-0.062 l 14.2813,0.031 a 3.4231915,3.4231915 0 0 0 2.5,-1.0313 3.4231915,3.4231915 0 0 0 -2.5,-5.8125 l -11.5937,-0.031 0,-11.5626 a 3.4231915,3.4231915 0 0 0 -3.625,-3.6875 z m -53.125,53.25013 a 3.4254132,3.4254132 0 1 0 0.3124,6.8437 l 11.5938,0 0,11.625 a 3.4231915,3.4231915 0 0 0 5.8438,2.4687 3.4231915,3.4231915 0 0 0 1.0312,-2.4687 l -0.0312,-14.3125 a 3.4231915,3.4231915 0 0 0 0.031,-0.3438 3.4231915,3.4231915 0 0 0 -1.4375,-3.1562 3.4231915,3.4231915 0 0 0 -0.062,-0.062 3.4250661,3.4250661 0 0 0 -0.1875,-0.125 3.4231915,3.4231915 0 0 0 -0.125,-0.062 3.4231915,3.4231915 0 0 0 -0.5313,-0.2188 3.4231915,3.4231915 0 0 0 -0.062,-0.062 3.4250661,3.4250661 0 0 0 -0.2188,-0.031 3.4231915,3.4231915 0 0 0 -0.125,-0.031 3.4250661,3.4250661 0 0 0 -0.25,0 3.4231915,3.4231915 0 0 0 -0.094,-0.031 3.4250661,3.4250661 0 0 0 -0.25,-0.031 3.4231915,3.4231915 0 0 0 -0.031,0 3.4250661,3.4250661 0 0 0 -0.3125,0.031 l -14.75,0 a 3.4231915,3.4231915 0 0 0 -0.3437,-0.031 z m 53.0624,0 a 3.4250661,3.4250661 0 0 0 -0.25,0.031 3.4231915,3.4231915 0 0 0 -0.125,0.031 3.4250661,3.4250661 0 0 0 -0.25,0 3.4231915,3.4231915 0 0 0 -0.094,0.031 3.4250661,3.4250661 0 0 0 -0.2187,0.031 3.4231915,3.4231915 0 0 0 -0.094,0.062 3.4231915,3.4231915 0 0 0 -0.5312,0.2188 3.4231915,3.4231915 0 0 0 -0.125,0.062 3.4250661,3.4250661 0 0 0 -0.1876,0.125 3.4231915,3.4231915 0 0 0 -0.062,0.062 3.4231915,3.4231915 0 0 0 -1.4376,3.1562 3.4231915,3.4231915 0 0 0 0.031,0.3438 l 0,14.3125 a 3.4231915,3.4231915 0 0 0 1,2.4687 3.4231915,3.4231915 0 0 0 5.8437,-2.4687 l 0.031,-11.625 11.5625,0 a 3.4231915,3.4231915 0 1 0 -0.031,-6.8125 l -14.75,0 a 3.4250661,3.4250661 0 0 0 -0.2813,-0.031 3.4231915,3.4231915 0 0 0 -0.031,0 z" fill="#FFFFFF" fill-opacity="1" stroke="none" marker="none" visibility="visible" display="inline" overflow="visible"></path></g></svg>