<svg height='100px' width='100px'  fill="#FFFFFF"   xmlns="http://www.w3.org/2000/svg" version="1.1" x="0px" y="0px" viewBox="0 0 100 100"><g transform="translate(0,-952.36218)"><path d="m 16.005504,964.77029 a 3.4231915,3.4231915 0 0 0 -2.9687,1.4688 3.4231915,3.4231915 0 0 0 -0.063,0.062 3.4250661,3.4250661 0 0 0 -0.094,0.1875 3.4231915,3.4231915 0 0 0 -0.062,0.125 3.4231915,3.4231915 0 0 0 -0.25,0.5312 3.4231915,3.4231915 0 0 0 -0.031,0.094 3.4250661,3.4250661 0 0 0 -0.031,0.2188 3.4231915,3.4231915 0 0 0 -0.031,0.094 3.4250661,3.4250661 0 0 0 -0.031,0.25 3.4231915,3.4231915 0 0 0 0,0.125 3.4250661,3.4250661 0 0 0 -0.031,0.2187 3.4231915,3.4231915 0 0 0 0,0.062 3.4250661,3.4250661 0 0 0 0.031,0.2813 l 0,14.7499 a 3.4231915,3.4231915 0 1 0 6.8125,0.031 l 0,-11.5625 11.5937,-0.031 a 3.4231915,3.4231915 0 0 0 2.5,-5.8437 3.4231915,3.4231915 0 0 0 -2.5,-1 l -14.2812,0 a 3.4231915,3.4231915 0 0 0 -0.375,-0.031 3.4231915,3.4231915 0 0 0 -0.1875,-0.031 z m 67.968702,0 a 3.4231915,3.4231915 0 0 0 -0.1874,0.031 3.4231915,3.4231915 0 0 0 -0.375,0.031 l -14.2813,0 a 3.4231915,3.4231915 0 0 0 -2.4687,1 3.4231915,3.4231915 0 0 0 2.4687,5.8438 l 11.5937,0.031 0,11.5625 a 3.4231915,3.4231915 0 1 0 6.8126,-0.031 l 0,-14.75 a 3.4250661,3.4250661 0 0 0 0.031,-0.2812 3.4231915,3.4231915 0 0 0 0,-0.062 3.4250661,3.4250661 0 0 0 -0.031,-0.2188 3.4231915,3.4231915 0 0 0 0,-0.125 3.4250661,3.4250661 0 0 0 -0.031,-0.25 3.4231915,3.4231915 0 0 0 -0.031,-0.094 3.4250661,3.4250661 0 0 0 -0.031,-0.2187 3.4231915,3.4231915 0 0 0 -0.031,-0.094 3.4231915,3.4231915 0 0 0 -0.25,-0.5313 3.4231915,3.4231915 0 0 0 -0.063,-0.125 3.4250661,3.4250661 0 0 0 -0.094,-0.1875 3.4231915,3.4231915 0 0 0 -0.062,-0.062 3.4231915,3.4231915 0 0 0 -2.9688,-1.4687 z m -68.031202,53.25011 a 3.4231915,3.4231915 0 0 0 -2.4688,1 3.4231915,3.4231915 0 0 0 -1.0312,2.4687 l 0.031,14.3125 a 3.4231915,3.4231915 0 0 0 -0.031,0.3438 3.4231915,3.4231915 0 0 0 1.4062,3.1562 3.4231915,3.4231915 0 0 0 0.094,0.062 3.4250661,3.4250661 0 0 0 0.1875,0.125 3.4231915,3.4231915 0 0 0 0.094,0.062 3.4231915,3.4231915 0 0 0 0.5313,0.2188 3.4231915,3.4231915 0 0 0 0.094,0.031 3.4250661,3.4250661 0 0 0 0.2188,0.062 3.4231915,3.4231915 0 0 0 0.125,0 3.4250661,3.4250661 0 0 0 0.25,0.031 3.4231915,3.4231915 0 0 0 0.094,0.031 3.4250661,3.4250661 0 0 0 0.25,0.031 3.4231915,3.4231915 0 0 0 0.031,0 3.4250661,3.4250661 0 0 0 0.3125,-0.031 l 14.75,0 a 3.4231915,3.4231915 0 1 0 0.031,-6.8437 l -11.5938,0 -0.031,-11.5938 a 3.4231915,3.4231915 0 0 0 -3.3438,-3.4687 z m 68.093802,0 a 3.4231915,3.4231915 0 0 0 -3.3438,3.4687 l -0.031,11.5938 -11.5938,0 a 3.4231915,3.4231915 0 1 0 0.031,6.8437 l 14.75,0 a 3.4250661,3.4250661 0 0 0 0.3126,0.031 3.4231915,3.4231915 0 0 0 0.031,0 3.4250661,3.4250661 0 0 0 0.25,-0.031 3.4231915,3.4231915 0 0 0 0.094,-0.031 3.4250661,3.4250661 0 0 0 0.25,-0.031 3.4231915,3.4231915 0 0 0 0.125,0 3.4250661,3.4250661 0 0 0 0.2187,-0.062 3.4231915,3.4231915 0 0 0 0.094,-0.031 3.4231915,3.4231915 0 0 0 0.5313,-0.2188 3.4231915,3.4231915 0 0 0 0.094,-0.062 3.4250661,3.4250661 0 0 0 0.1876,-0.125 3.4231915,3.4231915 0 0 0 0.094,-0.062 3.4231915,3.4231915 0 0 0 1.4375,-3.1562 3.4231915,3.4231915 0 0 0 -0.062,-0.3438 l 0.031,-14.3125 a 3.4231915,3.4231915 0 0 0 -1.0313,-2.4687 3.4231915,3.4231915 0 0 0 -2.4687,-1 z" style="text-indent:0;text-transform:none;direction:ltr;block-progression:tb;baseline-shift:baseline;color:#000000;enable-background:accumulate;" fill="#FFFFFF" fill-opacity="1" stroke="none" marker="none" visibility="visible" display="inline" overflow="visible"></path></g></svg>