<svg height='100px' width='100px'  fill="#FFFFFF" xmlns="http://www.w3.org/2000/svg" xmlns:xlink="http://www.w3.org/1999/xlink" version="1.1" x="0px" y="0px" viewBox="0 0 100 100" enable-background="new 0 0 100 100" xml:space="preserve"><g><g><polygon points="57.6320229,21.1634674 57.6320229,82.8335114 31.9620399,69.8335114 31.9620399,69.8335114     21.9620399,69.4934845 21.9620399,36.4934845 31.9620399,36.4934845 31.9620399,36.4934845   "></polygon><path d="M59.1318359,85.2753906l-27.5517578-13.953125l-11.1181641-0.3789063V34.9931641h11.0859375l27.5839844-16.4726563    V85.2753906z M23.4619141,68.0429688l8.8818359,0.3027344l23.7880859,12.046875V23.8056641l-23.7558594,14.1875h-8.9140625    V68.0429688z"></path></g><g><line x1="66.7953873" y1="39.2714844" x2="66.7953873" y2="64.7193985"></line><rect x="65.2949219" y="39.2714844" width="3" height="25.4482422"></rect></g><g><line x1="74.8787155" y1="35.3235664" x2="74.8787155" y2="68.6673126"></line><rect x="73.3789063" y="35.3232422" width="3" height="33.34375"></rect></g><g><line x1="82.9620514" y1="32.1569023" x2="82.9620514" y2="71.8339844"></line><rect x="81.4619141" y="32.1572266" width="3" height="39.6767578"></rect></g></g></svg>