<svg height='100px' width='100px'  fill="#FFFFFF" xmlns="http://www.w3.org/2000/svg" xmlns:xlink="http://www.w3.org/1999/xlink" version="1.1" x="0px" y="0px" viewBox="0 0 100 100" enable-background="new 0 0 100 100" xml:space="preserve"><g><g><polygon points="60.7697678,21.1634979 60.7697678,82.8334808 35.1097336,69.8334808 32.3564186,69.1233292 25.1097336,69.493454     25.1097336,36.493454 35.1097336,36.493454 35.1097336,36.493454   "></polygon><path d="M62.2695313,85.2744141L34.5771484,71.2451172l-2.3730469-0.6123047l-8.5947266,0.4384766v-36.078125h11.0859375    l27.5742188-16.4736328V85.2744141z M32.5087891,67.6132813l3.2783203,0.8818359l23.4824219,11.8964844V23.8066406    L35.5234375,37.9931641H26.609375v29.921875L32.5087891,67.6132813z"></path></g><g><line x1="71.9397659" y1="34.8733444" x2="71.9397659" y2="69.1233444"></line><rect x="70.4394531" y="34.8730469" width="3" height="34.25"></rect></g><g><line x1="80.7730942" y1="30.5191803" x2="80.7730942" y2="73.4775085"></line><rect x="79.2734375" y="30.5195313" width="3" height="42.9580078"></rect></g></g></svg>