<svg height='100px' width='100px'  fill="#FFFFFF" xmlns="http://www.w3.org/2000/svg" xmlns:xlink="http://www.w3.org/1999/xlink" version="1.1" x="0px" y="0px" viewBox="0 0 30 30" xml:space="preserve"><g transform="translate(-510 -140)"><g xmlns="http://www.w3.org/2000/svg" xmlns:xlink="http://www.w3.org/1999/xlink"><rect x="512" y="150" width="3" height="10"></rect><polygon points="523.443,159.949 527,156.393 527,153.607 523.442,150.05 526.271,147.222 527,147.95 527,144 516,151 516,159     527,166 527,162.051 526.271,162.779   "></polygon><polygon points="537.586,150.05 536.171,148.636 531.221,153.586 527,149.364 526.271,148.636 524.857,150.05 527,152.193     529.807,155 527,157.807 524.857,159.949 526.271,161.364 527,160.636 531.221,156.414 536.171,161.364 537.586,159.949     532.635,155   "></polygon></g></g></svg>